<svg width="16" height="16" viewBox="0 0 16 16" fill="none" xmlns="http://www.w3.org/2000/svg">
<path d="M15.6 0H0.4C0.18 0 0 0.266667 0 0.592593V15.4074C0 15.7333 0.18 16 0.4 16H15.6C15.82 16 16 15.7333 16 15.4074V0.592593C16 0.266667 15.82 0 15.6 0ZM14.64 1.18519L8 11.0222L1.36 1.18519H14.64ZM0.8 2.01481L4.84 8L0.8 13.9852V2.01481ZM1.38 14.8148L5.4 8.85926L7.72 12.2963C7.88 12.5333 8.12 12.5333 8.28 12.2963L10.6 8.85926L14.62 14.8148H1.38ZM15.2 13.9852L11.16 8L15.2 2.01481V13.9852Z" fill="black"/>
</svg>
