<svg width="23" height="23" viewBox="0 0 23 23" fill="none" xmlns="http://www.w3.org/2000/svg">
<path d="M2.25726 1.7394L3.20386 0.7928C3.59439 0.402276 4.22755 0.402277 4.61808 0.792801L8.5372 4.71192C8.92772 5.10244 8.92772 5.73561 8.5372 6.12613L6.93996 7.72337C6.72359 7.93974 6.66994 8.27031 6.80679 8.544C8.38901 11.7084 10.9549 14.2743 14.1193 15.8565C14.393 15.9934 14.7236 15.9397 14.94 15.7234L16.5372 14.1261C16.9277 13.7356 17.5609 13.7356 17.9514 14.1261L21.8705 18.0453C22.2611 18.4358 22.2611 19.0689 21.8705 19.4595L20.9239 20.4061C18.8126 22.5174 15.47 22.755 13.0813 20.9634L9.20621 18.0571C7.46268 16.7495 5.91386 15.2007 4.60621 13.4571L1.6999 9.58205C-0.0916409 7.19332 0.14591 3.85075 2.25726 1.7394Z" stroke="#222222"/>
</svg>
